<?xml version="1.0" encoding="utf-8"?>
<!-- Generator: Adobe Illustrator 15.1.0, SVG Export Plug-In . SVG Version: 6.00 Build 0)  -->
<!DOCTYPE svg PUBLIC "-//W3C//DTD SVG 1.1//EN" "http://www.w3.org/Graphics/SVG/1.1/DTD/svg11.dtd">
<svg version="1.1" xmlns="http://www.w3.org/2000/svg" xmlns:xlink="http://www.w3.org/1999/xlink" x="0px" y="0px" width="825px"
	 height="768px" viewBox="0 0 825 768" enable-background="new 0 0 825 768" xml:space="preserve">
<g id="Layer_1">
	<path fill="#231F20" d="M730.19,517.47c0.369-7.14,0.35-14.29,1.01-21.399c0.439-13.69,0.29-27.391,0.97-41.061
		c0.07-25.51,0.22-51.02,0.2-76.53c-41.811-0.04-83.62,0.02-125.43,0.03c-3.421-0.05-6.431,1.83-9.5,3.05
		c-106.671,45.38-213.42,90.55-320.05,136c0.03,7.61-0.03,15.23,0.04,22.841c107.27,0.02,214.53-0.03,321.79,0.029
		c-3.45,37.771-7.399,76.271-21.81,111.721c-12.12,30.159-33.78,56.75-61.96,73.22c-16.66,9.84-35.65,15.04-54.72,17.6
		c-16.15,2.391-32.49,2.69-48.771,3.42c-23.63,0.46-47.27,1.92-70.91,0.5c-10.33-0.54-20.69-0.159-31.01-1.029
		c-28.78-0.83-58.51-3.391-84.82-16.04c-28.5-13.96-51.4-38.221-65.34-66.58c-10.37-20.94-16.24-43.78-20.12-66.73
		c-4.23-25.279-6.42-50.85-8.14-76.41c-1.96-38.64-3.17-77.34-3.4-116.04c-0.82-13.34-0.78-26.74,0.01-40.08
		c0.03-26.7,0.89-53.38,1.75-80.05c1.56-41.11,3.96-82.37,11.65-122.86c4.64-23.5,11.86-46.81,24.2-67.49
		c15.9-26.5,40.02-48.64,69.06-59.79c23.27-8.86,48.4-10.86,73.07-11.9c18.68-0.61,37.37-1.21,56.07-1.65
		c17.66,0.11,35.3,1.08,52.96,1.36c24.18,0.97,48.72,2.13,72.01,9.33c27.33,8.15,50.95,26.32,68.11,48.85
		c12.02,15.71,20.5,33.89,26.37,52.71c6.909,22.09,10.42,45.06,13.109,67.99c42.91-0.01,85.82,0.04,128.73-0.02
		c-4.811-36.37-13.221-73.33-33.141-104.65C671,62.75,638.67,37.53,602.57,22.59C565.7,7.41,525.47,3.82,486.05,1.63
		c-9.74-0.26-19.49-0.58-29.2-1.25L455.28,0H317.3c-25.47,0.23-50.95,0.67-76.39,1.95c-31.35,1.86-62.95,4.87-93.08,14.16
		C106.56,28.79,68.92,54.56,43.98,90c-20.21,28.83-29.78,63.54-35.22,97.92C1.43,236.98,0.47,286.69,0,336.21v101.42
		c0.45,39.18,1.41,78.4,5.52,117.39c4.16,37.69,11.32,76.08,30.09,109.5c19.45,34.37,51.03,60.98,86.64,77.48
		c38.05,17.51,80.4,21.74,121.72,24.05c24.08,0.98,48.16,1.811,72.26,1.95h98.54c24.061-0.12,48.101-1,72.15-1.87
		c33.74-1.93,67.86-4.85,100.21-15.27c35.601-11.48,68.26-32.69,92.3-61.44c20.92-24.689,33.07-55.56,39.851-86.91
		c4.33-20.42,7.39-41.17,8.62-62.01c32.359-0.22,64.729-0.04,97.1-0.1V517.47C793.4,517.47,761.8,517.47,730.19,517.47z
		 M601.21,517.44c-54.729,0.22-109.47,0.029-164.21,0.1c-29.63-0.12-59.26,0.229-88.87-0.18c74.32-31.24,148.44-62.98,222.68-94.42
		c11.15-4.61,22.141-9.671,33.421-13.971C603.41,445.13,602.66,481.3,601.21,517.44z"/>
</g>
<g id="Layer_2">
</g>
</svg>
