<?xml version="1.0" encoding="utf-8"?>
<!-- Generator: Adobe Illustrator 15.1.0, SVG Export Plug-In . SVG Version: 6.00 Build 0)  -->
<!DOCTYPE svg PUBLIC "-//W3C//DTD SVG 1.1//EN" "http://www.w3.org/Graphics/SVG/1.1/DTD/svg11.dtd">
<svg version="1.1" xmlns="http://www.w3.org/2000/svg" xmlns:xlink="http://www.w3.org/1999/xlink" x="0px" y="0px" width="825px"
	 height="768px" viewBox="0 0 825 768" enable-background="new 0 0 825 768" xml:space="preserve">
<g id="Layer_1">
	<g>
		<path fill="#231F20" d="M316.23,773c-25.07-0.146-49.641-1.025-72.463-1.954c-38.786-2.168-83.448-6.023-123.607-24.504
			c-38.355-17.772-69.924-46.025-88.901-79.56C11.066,631.029,4.404,590.487,0.55,555.568C-3.358,518.492-4.495,481.633-5,437.688
			l0-101.478c0.481-50.685,1.517-100.183,8.815-149.029c6.778-42.833,18.237-74.611,36.071-100.051
			c24.948-35.451,62.76-62.368,106.476-75.799c30.988-9.555,63.613-12.554,94.252-14.372c27.03-1.36,53.908-1.753,76.641-1.959
			h138.623l1.737,0.42c9.012,0.613,17.954,0.928,28.568,1.211l0.145,0.006c38.805,2.156,79.891,5.578,118.146,21.329
			c38.416,15.899,71.056,42.585,91.916,75.146c22.131,34.796,29.734,75.295,33.888,106.691l0.747,5.648l-5.697,0.008
			c-16.729,0.023-33.453,0.03-50.184,0.03l-83.001-0.009l-0.519-4.418c-2.394-20.402-5.799-44.327-12.916-67.08
			c-6.2-19.879-14.802-37.092-25.568-51.165c-17.507-22.985-40.79-39.708-65.568-47.097c-23.347-7.217-48.511-8.232-70.721-9.123
			c-7.884-0.126-15.872-0.392-23.598-0.648c-9.573-0.318-19.471-0.648-29.18-0.709c-18.268,0.43-36.147,1-55.949,1.646
			c-22.311,0.941-48.118,2.691-71.454,11.576c-26.756,10.273-50.396,30.763-66.552,57.69
			c-10.631,17.816-18.347,39.371-23.583,65.886c-7.183,37.819-9.816,76.16-11.559,122.081c-0.844,26.172-1.717,53.249-1.747,79.866
			v0.146l-0.009,0.145c-0.793,13.402-0.797,26.684-0.01,39.478l0.008,0.138l0.001,0.139c0.218,36.767,1.36,75.732,3.394,115.817
			c1.532,22.759,3.694,49.642,8.078,75.838c4.486,26.536,10.737,47.3,19.669,65.337c13.956,28.391,36.348,51.225,63.059,64.309
			c25.559,12.288,54.885,14.729,82.765,15.532l0.138,0.004l0.138,0.012c5.771,0.486,11.739,0.573,17.512,0.656
			c4.358,0.063,8.865,0.128,13.339,0.362c6.726,0.404,13.87,0.599,21.878,0.599c10.092,0,20.392-0.312,30.352-0.615
			c5.981-0.182,12.165-0.369,18.261-0.488c2.766-0.124,5.534-0.235,8.302-0.347c13.159-0.53,26.767-1.078,39.895-3.021
			c21.093-2.831,38.378-8.376,52.909-16.959c26.488-15.48,47.741-40.613,59.863-70.778c13.897-34.188,18.012-72.82,20.97-104.859
			c-42.047-0.021-84.086-0.027-126.135-0.027l-130.629,0.006c-19.845,0-64.5-0.006-64.5-0.006l-0.046-4.953
			c-0.042-4.53-0.038-9.127-0.034-13.572c0.003-3.099,0.006-6.198-0.006-9.295l-0.013-3.318l3.053-1.301
			c61.318-26.136,123.703-52.615,184.032-78.223c45.345-19.246,90.69-38.493,136.021-57.778l0.11-0.045
			c0.681-0.271,1.357-0.579,2.039-0.887c2.608-1.18,5.565-2.518,9.175-2.518l0.205,0.001c13.906-0.004,27.886-0.013,41.865-0.021
			c17.581-0.011,35.162-0.022,52.744-0.022c10.25,0,20.503,0.004,30.753,0.014l4.991,0.005l0.004,4.991
			c0.014,17.389-0.053,35.064-0.117,52.156c-0.03,8.131-0.061,16.261-0.083,24.392l-0.006,0.234c-0.394,7.905-0.509,16-0.62,23.828
			c-0.08,5.612-0.162,11.416-0.347,17.145l-0.005,0.151l-0.014,0.15c-0.406,4.374-0.551,8.917-0.691,13.31
			c-0.027,0.867-0.056,1.745-0.085,2.628H830v32.922l-4.991,0.009c-5.112,0.01-10.22,0.013-15.332,0.013
			c-7.022,0-14.045-0.007-21.066-0.013c-7.021-0.007-14.04-0.014-21.06-0.014c-13.789,0-24.803,0.026-34.966,0.084
			c-1.336,18.512-4.161,38.024-8.413,58.076c-7.864,36.361-21.633,66.334-40.928,89.105c-23.962,28.657-57.559,51.028-94.58,62.967
			c-33.787,10.883-70.086,13.708-101.459,15.503l-1.052,0.039c-23.37,0.846-47.536,1.72-71.358,1.839h-0.013H316.23z
			 M372.434,512.551c3.462,0.01,7.117,0.015,11.02,0.015c6.516,0,13.031-0.013,19.547-0.026c6.523-0.013,13.047-0.025,19.573-0.025
			c4.813,0,9.633,0.007,14.446,0.026c9.474-0.013,18.97-0.017,28.47-0.017c11.777,0,23.553,0.007,35.328,0.014
			c11.773,0.007,23.546,0.013,35.319,0.013c23.901,0,42.743-0.028,60.264-0.091c1.201-31.248,1.915-62.961,2.606-93.677l0.054-2.39
			c-4.699,1.919-9.379,3.935-13.954,5.905c-4.048,1.743-8.232,3.546-12.388,5.264c-27.814,11.779-56.12,23.816-83.493,35.457
			C450.947,479.298,411.573,496.042,372.434,512.551z"/>
		<path fill="#FFFFFF" d="M455.28,0l1.569,0.38c9.71,0.67,19.46,0.99,29.2,1.25c39.42,2.19,79.65,5.78,116.521,20.96
			c36.1,14.94,68.43,40.16,89.609,73.22c19.92,31.32,28.33,68.28,33.141,104.65c-16.725,0.023-33.444,0.03-50.17,0.03
			c-21.966,0-43.933-0.012-65.898-0.012c-4.219,0-8.442,0-12.662,0.001c-2.689-22.93-6.2-45.9-13.109-67.99
			c-5.87-18.82-14.351-37-26.37-52.71c-17.16-22.53-40.78-40.7-68.11-48.85c-23.29-7.2-47.83-8.36-72.01-9.33
			c-17.66-0.28-35.3-1.25-52.96-1.36c-18.7,0.44-37.39,1.04-56.07,1.65c-24.67,1.04-49.8,3.04-73.07,11.9
			c-29.04,11.15-53.16,33.29-69.06,59.79c-12.34,20.68-19.56,43.99-24.2,67.49c-7.69,40.49-10.09,81.75-11.65,122.86
			c-0.86,26.67-1.72,53.35-1.75,80.05c-0.79,13.34-0.83,26.74-0.01,40.08c0.23,38.7,1.44,77.4,3.4,116.04
			c1.72,25.561,3.91,51.131,8.14,76.41c3.88,22.95,9.75,45.79,20.12,66.73c13.94,28.359,36.84,52.62,65.34,66.58
			c26.31,12.649,56.04,15.21,84.82,16.04c10.32,0.87,20.68,0.489,31.01,1.029c7.38,0.443,14.759,0.605,22.139,0.605
			c16.259,0,32.518-0.789,48.771-1.105c16.28-0.729,32.62-1.029,48.771-3.42c19.069-2.56,38.06-7.76,54.72-17.6
			c28.18-16.47,49.84-43.061,61.96-73.22c14.41-35.45,18.359-73.95,21.81-111.721c-43.862-0.024-87.715-0.03-131.578-0.03
			c-43.575,0-87.16,0.006-130.737,0.006c-19.824,0-39.649-0.001-59.475-0.005c-0.07-7.61-0.01-15.23-0.04-22.841
			c106.63-45.449,213.379-90.619,320.05-136c3.029-1.204,6.001-3.051,9.366-3.051c0.045,0,0.089,0,0.134,0.001
			c31.562-0.007,63.119-0.043,94.681-0.043c10.248,0,20.501,0.004,30.749,0.014c0.02,25.51-0.13,51.02-0.2,76.53
			c-0.68,13.67-0.53,27.37-0.97,41.061c-0.66,7.109-0.641,14.26-1.01,21.399c31.609,0,63.21,0,94.81,0V540.4
			c-5.107,0.01-10.212,0.013-15.319,0.013c-14.043,0-28.088-0.026-42.13-0.026c-13.218,0-26.436,0.023-39.65,0.113
			c-1.23,20.84-4.29,41.59-8.62,62.01c-6.78,31.351-18.931,62.221-39.851,86.91c-24.04,28.75-56.699,49.96-92.3,61.44
			c-32.35,10.42-66.47,13.34-100.21,15.27c-24.05,0.87-48.09,1.75-72.15,1.87h-98.54c-24.1-0.14-48.18-0.97-72.26-1.95
			c-41.32-2.31-83.67-6.54-121.72-24.05c-35.61-16.5-67.19-43.11-86.64-77.48C16.84,631.1,9.68,592.71,5.52,555.02
			C1.41,516.03,0.45,476.81,0,437.63V336.21c0.47-49.52,1.43-99.23,8.76-148.29C14.2,153.54,23.77,118.83,43.98,90
			c24.94-35.44,62.58-61.21,103.85-73.89c30.13-9.29,61.73-12.3,93.08-14.16C266.35,0.67,291.83,0.23,317.3,0H455.28
			 M383.453,517.565c13.038,0,26.079-0.052,39.119-0.052c4.809,0,9.619,0.007,14.428,0.026c9.499-0.013,18.996-0.017,28.494-0.017
			c23.545,0,47.084,0.026,70.627,0.026c21.695,0,43.396-0.022,65.089-0.109c1.45-36.141,2.2-72.311,3.021-108.471
			c-11.28,4.3-22.271,9.36-33.421,13.971c-74.239,31.439-148.359,63.18-222.68,94.42
			C359.902,517.523,371.676,517.565,383.453,517.565 M456.474-10h-1.193H317.3h-0.045l-0.045,0
			c-22.784,0.206-49.727,0.6-76.802,1.962l-0.045,0.002l-0.045,0.002c-30.952,1.836-63.936,4.874-95.434,14.586
			C100.122,20.307,61.379,47.899,35.802,84.245C17.505,110.346,5.777,142.788-1.117,186.357l-0.007,0.042l-0.006,0.043
			C-8.476,235.605-9.517,285.294-10,336.115l0,0.047v0.047v101.42v0.058l0,0.058c0.507,44.085,1.648,81.078,5.575,118.322
			c3.915,35.469,10.692,76.628,31.316,113.349c19.503,34.465,51.871,63.455,91.155,81.657
			c40.979,18.857,86.197,22.771,125.366,24.961l0.076,0.004l0.076,0.003c22.867,0.932,47.49,1.813,72.608,1.959h0.029h0.029h98.54
			c23.951-0.119,48.157-0.995,71.566-1.843l0.945-0.034l0.105-0.004l0.104-0.006c31.681-1.812,68.357-4.671,102.704-15.734
			c18.778-6.056,36.587-14.608,52.937-25.422c16.704-11.049,31.49-24.202,43.95-39.1c19.819-23.4,33.94-54.096,41.973-91.233
			c3.954-18.65,6.688-36.821,8.155-54.177c8.895-0.041,18.612-0.061,30.341-0.061c7.018,0,14.036,0.007,21.055,0.014
			c7.025,0.007,14.051,0.013,21.075,0.013c5.113,0,10.225-0.003,15.338-0.013l9.981-0.019V540.4V517.47v-10h-10h-84.433
			c0.122-3.594,0.271-7.049,0.59-10.475l0.028-0.302l0.01-0.303c0.186-5.773,0.268-11.599,0.349-17.233
			c0.11-7.784,0.225-15.834,0.613-23.651l0.012-0.233l0.001-0.235c0.022-8.127,0.053-16.254,0.083-24.381
			c0.064-17.1,0.131-34.781,0.117-52.184l-0.008-9.983l-9.982-0.009c-10.252-0.01-20.508-0.014-30.759-0.014
			c-17.584,0-35.166,0.011-52.749,0.022c-13.976,0.009-27.951,0.018-41.929,0.021l-0.137-0.001c-4.687,0-8.471,1.712-11.234,2.962
			c-0.663,0.3-1.289,0.583-1.826,0.796l-0.11,0.044l-0.11,0.046c-45.312,19.277-91.397,38.838-135.966,57.755
			c-60.349,25.615-122.752,52.103-184.09,78.247l-6.105,2.603l0.026,6.636c0.012,3.089,0.009,6.179,0.006,9.27
			c-0.004,4.458-0.008,9.068,0.034,13.624l0.091,9.906l9.906,0.002c19.826,0.004,39.651,0.005,59.477,0.005l65.371-0.003
			l65.366-0.003c48.091,0,85.872,0.008,120.609,0.024c-2.91,30.572-7.259,66.357-20.104,97.961
			c-11.727,29.178-32.228,53.439-57.742,68.352c-13.984,8.26-30.655,13.591-51.004,16.322l-0.067,0.009l-0.066,0.01
			c-12.864,1.904-25.736,2.423-39.364,2.972c-2.756,0.111-5.511,0.222-8.264,0.345c-6.102,0.12-12.277,0.308-18.25,0.489
			c-9.922,0.301-20.183,0.612-30.199,0.612c-7.909,0-14.955-0.191-21.54-0.588l-0.039-0.002l-0.039-0.002
			c-4.568-0.239-9.123-0.305-13.528-0.368c-5.948-0.086-11.567-0.168-17.164-0.64l-0.275-0.023l-0.276-0.008
			c-27.313-0.787-55.999-3.155-80.738-15.039c-25.709-12.602-47.277-34.617-60.735-61.996
			c-8.723-17.613-14.831-37.938-19.235-63.986c-4.339-25.935-6.489-52.635-8.017-75.337c-2.027-39.979-3.165-78.841-3.383-115.506
			l-0.002-0.277l-0.017-0.277c-0.774-12.593-0.771-25.672,0.011-38.874l0.017-0.29l0-0.29c0.03-26.539,0.901-53.575,1.744-79.721
			c1.732-45.641,4.347-83.756,11.472-121.292c5.122-25.931,12.636-46.955,22.971-64.274c15.572-25.953,38.326-45.699,64.057-55.579
			c22.596-8.603,47.908-10.316,69.865-11.243c19.742-0.645,37.575-1.213,55.778-1.642c9.617,0.062,19.454,0.39,28.969,0.706
			c7.727,0.257,15.715,0.522,23.623,0.649c21.889,0.878,46.683,1.884,69.338,8.887l0.047,0.015l0.049,0.014
			c23.771,7.089,46.149,23.186,63.013,45.326c10.422,13.623,18.755,30.314,24.779,49.628c6.996,22.368,10.357,46.005,12.724,66.177
			l1.036,8.837l8.897-0.002l12.66-0.001c10.982,0,21.965,0.003,32.947,0.006c10.983,0.003,21.968,0.006,32.951,0.006
			c19.588,0,35.534-0.01,50.184-0.03l11.395-0.016l-1.494-11.295c-4.221-31.907-11.969-73.097-34.616-108.706
			c-21.425-33.441-54.881-60.811-94.224-77.093C567.4-2.705,525.836-6.175,486.604-8.354l-0.144-0.008l-0.145-0.004
			c-10.386-0.277-19.154-0.584-27.939-1.173l-0.744-0.18L456.474-10L456.474-10z M574.666,432.167
			c4.177-1.728,8.367-3.532,12.42-5.277c2.247-0.968,4.519-1.946,6.804-2.918c-0.62,27.46-1.278,55.643-2.304,83.503
			c-16.171,0.052-33.723,0.075-55.465,0.075c-11.77,0-23.537-0.006-35.307-0.013c-11.772-0.007-23.546-0.014-35.32-0.014
			c-9.496,0-18.993,0.004-28.49,0.017c-4.811-0.02-9.621-0.026-14.432-0.026c-6.527,0-13.055,0.013-19.582,0.026
			c-1.957,0.004-3.915,0.008-5.872,0.011c31.606-13.37,63.193-26.803,94.071-39.934
			C518.545,455.984,546.832,443.954,574.666,432.167L574.666,432.167z"/>
	</g>
</g>
<g id="Layer_2">
</g>
</svg>
